<?xml version="1.0" encoding="UTF-8"?>
<svg id="Camada_2" data-name="Camada 2" xmlns="http://www.w3.org/2000/svg" xmlns:xlink="http://www.w3.org/1999/xlink" viewBox="0 0 264.44 349.46">
  <defs>
    <style>
      .cls-1 {
        fill: url(#Gradiente_sem_nome_1332);
      }

      .cls-2 {
        fill: #1b1d3c;
      }

      .cls-3 {
        fill: #d3aa46;
      }

      .cls-4 {
        fill: #78b4a1;
      }

      .cls-5 {
        fill: #33b087;
      }

      .cls-6 {
        fill: url(#Gradiente_sem_nome_1443);
      }

      .cls-7 {
        fill: url(#Gradiente_sem_nome_1516-2);
      }

      .cls-8 {
        fill: url(#Gradiente_sem_nome_510);
      }

      .cls-9 {
        fill: url(#Gradiente_sem_nome_1448);
      }

      .cls-10 {
        fill: url(#Gradiente_sem_nome_897);
      }

      .cls-11 {
        fill: url(#Gradiente_sem_nome_1493);
      }

      .cls-12 {
        fill: url(#Gradiente_sem_nome_1516);
      }
    </style>
    <linearGradient id="Gradiente_sem_nome_510" data-name="Gradiente sem nome 510" x1="19.05" y1="159.44" x2="264.44" y2="159.44" gradientUnits="userSpaceOnUse">
      <stop offset="0" stop-color="#222551"/>
      <stop offset="1" stop-color="#8ac9aa"/>
    </linearGradient>
    <radialGradient id="Gradiente_sem_nome_897" data-name="Gradiente sem nome 897" cx="289.74" cy="123.49" fx="289.74" fy="123.49" r="121.06" gradientTransform="translate(-16.05 35.59) scale(.57 .89)" gradientUnits="userSpaceOnUse">
      <stop offset="0" stop-color="#87732f"/>
      <stop offset=".53" stop-color="#eec650"/>
    </radialGradient>
    <linearGradient id="Gradiente_sem_nome_1332" data-name="Gradiente sem nome 1332" x1="106.52" y1="139.88" x2="163.66" y2="159.64" gradientTransform="translate(-55.74 36) rotate(-22.86) scale(1 1.21)" gradientUnits="userSpaceOnUse">
      <stop offset="0" stop-color="#fff"/>
      <stop offset="0" stop-color="#274f9e"/>
      <stop offset=".69" stop-color="#223b73"/>
      <stop offset="1" stop-color="#090d1b"/>
    </linearGradient>
    <linearGradient id="Gradiente_sem_nome_1443" data-name="Gradiente sem nome 1443" x1="227.13" y1="348.98" x2="227.13" y2="186.95" gradientTransform="translate(6.04 43.22) rotate(-2.06) scale(.92 .81)" gradientUnits="userSpaceOnUse">
      <stop offset="0" stop-color="#222650"/>
      <stop offset="1" stop-color="#3d758e"/>
    </linearGradient>
    <linearGradient id="Gradiente_sem_nome_1493" data-name="Gradiente sem nome 1493" x1="99.46" y1="346.31" x2="99.46" y2="253.75" gradientUnits="userSpaceOnUse">
      <stop offset="0" stop-color="#222551"/>
      <stop offset="1" stop-color="#3f758e"/>
    </linearGradient>
    <linearGradient id="Gradiente_sem_nome_1516" data-name="Gradiente sem nome 1516" x1="19.05" y1="346.31" x2="19.05" y2="127.33" gradientUnits="userSpaceOnUse">
      <stop offset="0" stop-color="#222650"/>
      <stop offset="1" stop-color="#3f758e"/>
    </linearGradient>
    <linearGradient id="Gradiente_sem_nome_1516-2" data-name="Gradiente sem nome 1516" x1="45.71" y1="354.36" x2="45.71" y2="278.01" gradientTransform="translate(-29.31 57.85) rotate(-5.54) scale(1 .84)" xlink:href="#Gradiente_sem_nome_1516"/>
    <linearGradient id="Gradiente_sem_nome_1448" data-name="Gradiente sem nome 1448" x1="160.72" y1="331.37" x2="160.72" y2="226.12" gradientUnits="userSpaceOnUse">
      <stop offset="0" stop-color="#222551"/>
      <stop offset="1" stop-color="#3e758e"/>
    </linearGradient>
  </defs>
  <path class="cls-8" d="M59.71,215.55c-2.83-10.87-12.48-51.5,0-88.17,6.11-17.95,15-27.53,26.52-39.95,21.4-23.07,42.44-31.64,56.58-37.2,14.56-5.72,21.49-5.92,48.62-16.53,2.09-.82,9.58-2.07,17.21-8.19,3.91-3.13,8.16-6.43,10.9-12.96,2.86-6.84,1.29-9.95,3.71-11.91,2.63-2.14,6.73,1.26,12.38,8.27,6.72,8.34,14.17,17.16,20.33,34.44,5.14,14.43,7.07,29,7.96,38.58,5.28,57.28-31.17,99.87-57.46,119.86-12.57,9.55-21.65,17.09-53.92,28.93-41,15.04-49.59,14.82-71.61,27.55-15.66,9.06-37.85,25.99-61.88,60.62l40.66-103.33Z"/>
  <g id="Camada_4" data-name="Camada 4">
    <path class="cls-2" d="M84.95,160.75c-1.66-34.93,15.37-56.06,34.19-68.25,14.97-9.99,30.85-16.71,47.38-15.93,18.63.8,43.39,8.07,48.26,41.04,6.48,48.62-29.02,78.31-54.42,88.8-25.85,10.96-70.96,7.28-75.39-45.36l-.02-.29Z"/>
  </g>
  <g id="Camada_3" data-name="Camada 3">
    <path class="cls-10" d="M97.36,149.65c7.61-47.78,51.72-64.76,78.99-57.49,15.99,3.74,29.2,24.34,25.94,51.14-3.56,26.19-20.53,42.18-35.75,50.3-11.83,5.98-25.67,8.95-38.1,6.05-16.21-3.43-35.57-17.48-31.31-48.24l.23-1.76Z"/>
    <path class="cls-3" d="M99.28,153.11c6.78-38.56,46.11-52.26,70.41-46.4,14.26,3.02,26.03,19.65,23.13,41.27-3.17,21.13-18.3,34.04-31.87,40.59-10.55,4.82-22.88,7.22-33.97,4.88-14.45-2.77-31.6-14.85-27.8-39.68l.09-.67Z"/>
  </g>
  <g id="Camada_5" data-name="Camada 5">
    <path class="cls-1" d="M114.85,166.89c-10.7-23.67,5.18-44.41,20.02-47.08,15.11-3.77,40.12,7.7,37.5,35.79-2.1,13.19-10.96,21.24-19.5,25.1-12.6,5.53-29.23,3.33-37.82-13.4l-.2-.41Z"/>
  </g>
  <g id="Camada_7" data-name="Camada 7">
    <path class="cls-5" d="M139.16,173.32c2.87,6.7,5.24,8.5,6.97,8.75.42.06,1.4.12,1.4.34,0,.66-5.03,1.16-6.33,1.15-3.54-.02-11,1.14-19.24-6.87"/>
  </g>
  <g id="Camada_6" data-name="Camada 6">
    <path class="cls-4" d="M114.89,164.61c.34-6.56,7.44-12.78,12.71-13.99,2.54-.58,9.42-2.62,13.39,4.22.29.51,3.27,4.79,2.24,10.9-1.24,7.33-5.55,11.27-8.38,12.28-2.03.73-8.87,2.37-13.62-1.75-1.03-.89-3.89-3.74-6.22-8.82-.47-1.02-.18-1.59-.12-2.84Z"/>
  </g>
  <g id="Camada_8" data-name="Camada 8">
    <path class="cls-6" d="M199.38,218.45s18.32-13.87,28.38-22.88c11.96-10.72,16.52-19.86,16.55-19.18.04,1.24,5.17,62.69,5.17,62.69.82,5.72-.86,17.3-2.72,23.64-8.6,29.2-40.02,42.6-47.37,46.54v-90.81Z"/>
    <path class="cls-11" d="M76.24,274.36c12.6-10.43,29.01-16.64,46.24-20.61.67,3.82-.52,77.61-.32,80.76-15.65,3.43-30.15,8.57-45.91,11.8"/>
    <g id="Camada_10" data-name="Camada 10">
      <path class="cls-12" d="M1.02,346.31l31.94-91.06c.99-2.34,2.38-5.98,3.34-10.78,3.9-19.53-2.29-36.77-4.67-48.79-6.98-35.2,3.81-61.46,6.25-67.39s-17.29,17.33-25.62,37.2c-7.05,16.82-10.47,34.98-12.26,45.83l1.02,135Z"/>
    </g>
    <path class="cls-7" d="M61.36,282.87c-7.38,6.38-17.44,16.13-24.52,24.38-6.47,7.4-12.69,15.01-14.68,24.06-1.8,7.62-2.04,15.18,4.21,17.32,5.2,1.64,11.05.43,16.67-.02,8.19-.66,11.32-.7,18.96-1.68"/>
    <path class="cls-9" d="M184.4,315.07c.04-29.84.05-58.88.11-88.96-7.33,4.56-11.95,5.92-20.89,9.77-7.05,3.04-18.11,6.97-26.69,9.65v85.83l47.47-16.3Z"/>
  </g>
</svg>
